# xmcd
#
# Track frame offsets:
#  183
#  20745
#  35105
#  53520
#  67565
#  82828
#  98183
#  111635
#  129815
#  139055
#
# Disc length: 2256 seconds
#
# Revision: 0
# Processed by: cddbd v1.5.2PL0 Copyright (c) Steve Scherf et al.
# Submitted via: Collectorz.com_Music_Collector 6.11
#
DISCID=7c08ce0a
DTITLE=Neil Young - Harvest
DYEAR=1972
DGENRE=Blues
TTITLE0=Out On The Weekend
TTITLE1=Harvest
TTITLE2=A Man Needs A Maid
TTITLE3=Heart Of Gold
TTITLE4=Are You Ready For The Country
TTITLE5=Old Man
TTITLE6=There's A World
TTITLE7=Alabama
TTITLE8=The Needle And The Damage Done
TTITLE9=Words (Between The Lines Of Age)
EXTD=
EXTT0=
EXTT1=
EXTT2=
EXTT3=
EXTT4=
EXTT5=
EXTT6=
EXTT7=
EXTT8=
EXTT9=
PLAYORDER=
